# xmcd
#
# Track frame offsets:
#	150
#	19399
#	36199
#	54151
#	68731
#	85013
#	100257
#	121986
#	138775
#	155641
#	177110
#	191888
#
# Disc length: 2782 seconds
#
# Revision: 1
# Processed by: cddbd v1.5.2PL0 Copyright (c) Steve Scherf et al.
# Submitted via: audiograbber 1.83.01
#
DISCID=9a0adc0c
DTITLE=Eli Young Band - Jet Black and Jealous
DYEAR=2008
DGENRE=Country
TTITLE0=When It Rains
TTITLE1=Always The Love Song
TTITLE2=Radio Waves
TTITLE3=Enough Is Enough
TTITLE4=Famous
TTITLE5=Throw and Go
TTITLE6=Guinevere
TTITLE7=Get In The Car And Drive
TTITLE8=Jet Black And Jealous
TTITLE9=Mystery In The Making
TTITLE10=How Should I Know
TTITLE11=Home
EXTD=
EXTT0=
EXTT1=
EXTT2=
EXTT3=
EXTT4=
EXTT5=
EXTT6=
EXTT7=
EXTT8=
EXTT9=
EXTT10=
EXTT11=
PLAYORDER=
